# xmcd
#
# Track frame offsets:
#	150
#	22767
#	41880
#	55057
#	74050
#	96957
#	114992
#	134697
#	145770
#	163775
#	179777
#	195262
#
# Disc length: 2823 seconds
#
# Revision: 1
# Processed by: cddbd v1.4PL0 Copyright (c) Steve Scherf et al.
# Submitted via: audiograbber 1.81.03
#
DISCID=af0b050c
DTITLE=Julie Joyce - Ther's a Heart Breaking Tonight
DYEAR=1998
DGENRE=
TTITLE0=There's a Heart Breaking Tonight
TTITLE1=On Every Shore
TTITLE2=The Dance
TTITLE3=Carry On
TTITLE4=Take My Heart
TTITLE5=Looking Back
TTITLE6=He Moves Me
TTITLE7=Straight From the Heart
TTITLE8=I Can Feel the Rain
TTITLE9=Forever Love
TTITLE10=All I Have In This Life
TTITLE11=Time Will Tell
EXTD=
EXTT0=
EXTT1=
EXTT2=
EXTT3=
EXTT4=
EXTT5=
EXTT6=
EXTT7=
EXTT8=
EXTT9=
EXTT10=
EXTT11=
PLAYORDER=
